<svg width="290" height="82" viewBox="0 0 290 82" fill="none" xmlns="http://www.w3.org/2000/svg">
<path d="M108.407 30.9111V38.544H117.387V42.0237H108.407V49.9933H118.509V53.473H104.142V27.4314H118.509V30.9111H108.407ZM125.559 47.6735C127.954 45.6032 129.837 43.907 131.209 42.5849C132.606 41.2379 133.766 39.8411 134.689 38.3943C135.612 36.9476 136.073 35.5008 136.073 34.054C136.073 32.5574 135.711 31.385 134.988 30.5369C134.29 29.6888 133.18 29.2648 131.658 29.2648C130.186 29.2648 129.039 29.7387 128.216 30.6866C127.418 31.6095 126.993 32.8567 126.944 34.4282H122.828C122.903 31.5846 123.751 29.4144 125.372 27.9178C127.018 26.3962 129.101 25.6354 131.621 25.6354C134.34 25.6354 136.46 26.3837 137.981 27.8804C139.528 29.377 140.301 31.3725 140.301 33.867C140.301 35.6629 139.84 37.3965 138.917 39.0678C138.019 40.7141 136.934 42.1983 135.662 43.5203C134.414 44.8174 132.818 46.3265 130.872 48.0477L129.189 49.5443H141.049V53.0989H122.865V49.9933L125.559 47.6735ZM144.797 39.4794C144.797 35.1641 145.52 31.7966 146.967 29.377C148.438 26.9325 150.958 25.7102 154.525 25.7102C158.092 25.7102 160.599 26.9325 162.045 29.377C163.517 31.7966 164.253 35.1641 164.253 39.4794C164.253 43.8446 163.517 47.2619 162.045 49.7314C160.599 52.1759 158.092 53.3982 154.525 53.3982C150.958 53.3982 148.438 52.1759 146.967 49.7314C145.52 47.2619 144.797 43.8446 144.797 39.4794ZM160.062 39.4794C160.062 37.4589 159.925 35.7502 159.651 34.3534C159.401 32.9565 158.878 31.8215 158.079 30.9485C157.281 30.0505 156.096 29.6015 154.525 29.6015C152.953 29.6015 151.769 30.0505 150.97 30.9485C150.172 31.8215 149.636 32.9565 149.361 34.3534C149.112 35.7502 148.987 37.4589 148.987 39.4794C148.987 41.5747 149.112 43.3332 149.361 44.7551C149.611 46.1769 150.135 47.3243 150.933 48.1973C151.756 49.0704 152.953 49.5069 154.525 49.5069C156.096 49.5069 157.281 49.0704 158.079 48.1973C158.903 47.3243 159.439 46.1769 159.688 44.7551C159.938 43.3332 160.062 41.5747 160.062 39.4794ZM168.205 30.0879V26.1966H175.988V53.473H171.685V30.0879H168.205ZM214.54 27.4688L204.775 53.473H199.836L190.033 27.4688H194.598L202.305 49.0953L210.05 27.4688H214.54ZM216.686 43.0713C216.686 41.001 217.11 39.1676 217.958 37.5712C218.831 35.9747 220.003 34.74 221.475 33.867C222.972 32.969 224.618 32.52 226.414 32.52C228.035 32.52 229.445 32.8443 230.642 33.4928C231.864 34.1164 232.837 34.9021 233.56 35.85V32.8567H237.863V53.473H233.56V50.4049C232.837 51.3777 231.852 52.1884 230.604 52.8369C229.357 53.4855 227.935 53.8098 226.339 53.8098C224.568 53.8098 222.947 53.3608 221.475 52.4628C220.003 51.5399 218.831 50.2677 217.958 48.6463C217.11 47 216.686 45.1417 216.686 43.0713ZM233.56 43.1462C233.56 41.7244 233.261 40.4896 232.662 39.442C232.089 38.3943 231.328 37.5961 230.38 37.0473C229.432 36.4986 228.409 36.2242 227.312 36.2242C226.214 36.2242 225.192 36.4986 224.244 37.0473C223.296 37.5712 222.523 38.3569 221.924 39.4045C221.35 40.4273 221.063 41.6495 221.063 43.0713C221.063 44.4931 221.35 45.7404 221.924 46.8129C222.523 47.8855 223.296 48.7087 224.244 49.2824C225.217 49.8312 226.239 50.1056 227.312 50.1056C228.409 50.1056 229.432 49.8312 230.38 49.2824C231.328 48.7336 232.089 47.9354 232.662 46.8878C233.261 45.8152 233.56 44.568 233.56 43.1462ZM262.136 32.8567V53.473H257.871V51.041C257.197 51.8891 256.312 52.5626 255.214 53.0614C254.142 53.5354 252.994 53.7724 251.772 53.7724C250.151 53.7724 248.691 53.4356 247.394 52.7621C246.122 52.0886 245.112 51.0909 244.364 49.7688C243.64 48.4468 243.279 46.8504 243.279 44.9796V32.8567H247.507V44.3435C247.507 46.1893 247.968 47.6112 248.891 48.6089C249.814 49.5817 251.074 50.0682 252.67 50.0682C254.266 50.0682 255.526 49.5817 256.449 48.6089C257.397 47.6112 257.871 46.1893 257.871 44.3435V32.8567H262.136ZM272.03 25.7851V53.473H267.764V25.7851H272.03ZM282.606 36.3364V47.7484C282.606 48.5216 282.781 49.0829 283.13 49.4321C283.504 49.7564 284.128 49.9185 285.001 49.9185H287.62V53.473H284.252C282.332 53.473 280.86 53.024 279.837 52.126C278.815 51.2281 278.303 49.7688 278.303 47.7484V36.3364H275.871V32.8567H278.303V27.7307H282.606V32.8567H287.62V36.3364H282.606Z" fill="white"/>
<rect opacity="0.2" width="74.8323" height="74.8323" rx="37.4161" fill="white"/>
<rect x="32.7393" y="31.1801" width="49.8882" height="49.8882" rx="24.9441" fill="white"/>
</svg>
