<svg width="186" height="52" viewBox="0 0 186 52" fill="none" xmlns="http://www.w3.org/2000/svg">
<path d="M69.536 19.528V24.424H75.296V26.656H69.536V31.768H76.016V34H66.8V17.296H76.016V19.528H69.536ZM80.5379 30.28C82.0739 28.952 83.2819 27.864 84.1619 27.016C85.0579 26.152 85.8019 25.256 86.3939 24.328C86.9859 23.4 87.2819 22.472 87.2819 21.544C87.2819 20.584 87.0499 19.832 86.5859 19.288C86.1379 18.744 85.4259 18.472 84.4499 18.472C83.5059 18.472 82.7699 18.776 82.2419 19.384C81.7299 19.976 81.4579 20.776 81.4259 21.784H78.7859C78.8339 19.96 79.3779 18.568 80.4179 17.608C81.4739 16.632 82.8099 16.144 84.4259 16.144C86.1699 16.144 87.5299 16.624 88.5059 17.584C89.4979 18.544 89.9939 19.824 89.9939 21.424C89.9939 22.576 89.6979 23.688 89.1059 24.76C88.5299 25.816 87.8339 26.768 87.0179 27.616C86.2179 28.448 85.1939 29.416 83.9459 30.52L82.8659 31.48H90.4739V33.76H78.8099V31.768L80.5379 30.28ZM92.8775 25.024C92.8775 22.256 93.3415 20.096 94.2695 18.544C95.2135 16.976 96.8295 16.192 99.1175 16.192C101.406 16.192 103.014 16.976 103.942 18.544C104.886 20.096 105.358 22.256 105.358 25.024C105.358 27.824 104.886 30.016 103.942 31.6C103.014 33.168 101.406 33.952 99.1175 33.952C96.8295 33.952 95.2135 33.168 94.2695 31.6C93.3415 30.016 92.8775 27.824 92.8775 25.024ZM102.67 25.024C102.67 23.728 102.582 22.632 102.406 21.736C102.246 20.84 101.91 20.112 101.398 19.552C100.886 18.976 100.126 18.688 99.1175 18.688C98.1095 18.688 97.3495 18.976 96.8375 19.552C96.3255 20.112 95.9815 20.84 95.8055 21.736C95.6455 22.632 95.5655 23.728 95.5655 25.024C95.5655 26.368 95.6455 27.496 95.8055 28.408C95.9655 29.32 96.3015 30.056 96.8135 30.616C97.3415 31.176 98.1095 31.456 99.1175 31.456C100.126 31.456 100.886 31.176 101.398 30.616C101.926 30.056 102.27 29.32 102.43 28.408C102.59 27.496 102.67 26.368 102.67 25.024ZM107.893 19V16.504H112.885V34H110.125V19H107.893ZM137.614 17.32L131.35 34H128.182L121.894 17.32H124.822L129.766 31.192L134.734 17.32H137.614ZM138.99 27.328C138.99 26 139.262 24.824 139.806 23.8C140.366 22.776 141.118 21.984 142.062 21.424C143.022 20.848 144.078 20.56 145.23 20.56C146.27 20.56 147.174 20.768 147.942 21.184C148.726 21.584 149.35 22.088 149.814 22.696V20.776H152.574V34H149.814V32.032C149.35 32.656 148.718 33.176 147.918 33.592C147.118 34.008 146.206 34.216 145.182 34.216C144.046 34.216 143.006 33.928 142.062 33.352C141.118 32.76 140.366 31.944 139.806 30.904C139.262 29.848 138.99 28.656 138.99 27.328ZM149.814 27.376C149.814 26.464 149.622 25.672 149.238 25C148.87 24.328 148.382 23.816 147.774 23.464C147.166 23.112 146.51 22.936 145.806 22.936C145.102 22.936 144.446 23.112 143.838 23.464C143.23 23.8 142.734 24.304 142.35 24.976C141.982 25.632 141.798 26.416 141.798 27.328C141.798 28.24 141.982 29.04 142.35 29.728C142.734 30.416 143.23 30.944 143.838 31.312C144.462 31.664 145.118 31.84 145.806 31.84C146.51 31.84 147.166 31.664 147.774 31.312C148.382 30.96 148.87 30.448 149.238 29.776C149.622 29.088 149.814 28.288 149.814 27.376ZM168.143 20.776V34H165.407V32.44C164.975 32.984 164.407 33.416 163.703 33.736C163.015 34.04 162.279 34.192 161.495 34.192C160.455 34.192 159.519 33.976 158.687 33.544C157.871 33.112 157.223 32.472 156.743 31.624C156.279 30.776 156.047 29.752 156.047 28.552V20.776H158.759V28.144C158.759 29.328 159.055 30.24 159.647 30.88C160.239 31.504 161.047 31.816 162.071 31.816C163.095 31.816 163.903 31.504 164.495 30.88C165.103 30.24 165.407 29.328 165.407 28.144V20.776H168.143ZM174.489 16.24V34H171.753V16.24H174.489ZM181.273 23.008V30.328C181.273 30.824 181.385 31.184 181.609 31.408C181.849 31.616 182.249 31.72 182.809 31.72H184.489V34H182.329C181.097 34 180.153 33.712 179.497 33.136C178.841 32.56 178.513 31.624 178.513 30.328V23.008H176.953V20.776H178.513V17.488H181.273V20.776H184.489V23.008H181.273Z" fill="#2563EB"/>
<rect opacity="0.2" width="48" height="48" rx="24" fill="#2563EB"/>
<rect x="21" y="20" width="32" height="32" rx="16" fill="#2563EB"/>
</svg>
